<svg version="1.1"
  xmlns="http://www.w3.org/2000/svg" width="180" height="180" viewBox="0 0 512 512">
  <path class="logo-path" style="--i:0;" d="M114 0L398 0A114 114 0 0 1 512 114L512 398A114 114 0 0 1 398 512L114 512A114 114 0 0 1 0 398L0 114A114 114 0 0 1 114 0z" fill="#8E43B2"></path>
  <path class="logo-path" style="--i:1;" d="M398.576 98.864C400.816 101.104 400.816 101.104 400.816 105.584C401.555 105.584 402.294 105.584 403.056 105.584C404.171 109.429 405.26 113.281 406.346 117.134C406.657 118.206 406.968 119.278 407.289 120.382C409.143 127.017 410.254 133.319 410.662 140.2C410.645 142.529 410.645 142.529 412.016 143.664C412.337 145.79 412.593 147.926 412.821 150.065C413.035 152.015 413.035 152.015 413.254 154.004C413.4 155.374 413.546 156.743 413.696 158.154C413.984 160.848 414.275 163.542 414.571 166.235C414.699 167.436 414.827 168.637 414.958 169.874C415.216 172.759 415.216 172.759 416.496 175.024C416.716 176.96 416.924 178.897 417.126 180.834C418.37 189.382 421.263 197.122 424.212 205.213C427.661 214.839 430.087 224.538 432.277 234.515C432.83 238.595 432.83 238.595 434.416 239.984C434.722 241.677 434.966 243.382 435.182 245.09C435.388 246.676 435.388 246.676 435.599 248.294C435.74 249.41 435.881 250.525 436.026 251.674C436.94 258.888 437.987 266.005 439.469 273.125C440.361 277.528 441.069 281.957 441.766 286.394C441.912 287.319 442.059 288.243 442.21 289.196C443.117 295.053 443.772 300.879 444.22 306.79C444.592 310.345 445.38 313.747 446.202 317.22C449.57 331.63 447.498 344.744 443.376 358.704C442.637 359.813 441.898 360.922 441.136 362.064C440.397 362.064 439.658 362.064 438.896 362.064C438.896 363.173 438.896 364.282 438.896 365.424C438.157 365.424 437.418 365.424 436.656 365.424C436.656 366.533 436.656 367.642 436.656 368.784C434.858 370.814 433.057 372.566 431.056 374.384C430.362 375.057 429.667 375.73 428.952 376.423C412.742 391.647 392.895 398.115 372.217 404.839C369.685 405.669 367.162 406.523 364.639 407.38C356.592 410.069 348.421 412.365 340.279 414.748C333.888 416.627 327.533 418.557 321.224 420.698C315.346 422.666 309.352 424.265 303.376 425.904C302.613 426.114 301.85 426.324 301.063 426.541C298.711 427.183 296.355 427.806 293.996 428.424C291.869 428.987 291.869 428.987 289.7 429.562C285.976 430.283 282.747 430.391 278.978 430.307C273.779 430.468 268.7 431.738 263.616 432.764C249.921 435.415 236.179 437.62 222.386 439.694C220.901 439.92 220.901 439.92 219.386 440.151C216.541 440.583 213.695 441.008 210.849 441.431C209.575 441.625 209.575 441.625 208.275 441.822C203.722 442.487 199.337 442.836 194.736 442.704C194.914 442.135 195.092 441.567 195.275 440.981C196.047 437.315 196.085 433.682 196.189 429.951C197.076 407.936 199.919 391.919 211.877 372.935C214.771 368.316 217.386 363.553 220.006 358.774C220.496 357.897 220.986 357.021 221.492 356.117C227.698 344.885 232.848 333.14 238.122 321.45C239.325 318.841 240.583 316.282 241.899 313.729C244.402 308.795 246.348 303.681 248.286 298.504C248.674 297.476 249.061 296.449 249.461 295.39C253.035 285.86 256.415 276.267 259.728 266.644C260.948 263.123 262.187 259.61 263.428 256.097C264.331 253.526 265.233 250.955 266.136 248.384C266.558 247.195 266.98 246.006 267.415 244.78C269.809 237.927 271.784 231.097 273.472 224.038C274.144 221.387 274.917 218.857 275.822 216.28C278.34 208.989 280.187 201.496 282.115 194.032C282.793 191.415 283.486 188.802 284.179 186.189C286.31 178.017 288.233 170.293 288.306 161.783C289.028 158.332 290.602 157.076 293.296 154.864C295.842 153.388 295.842 153.388 298.677 152.077C299.753 151.572 300.829 151.067 301.937 150.546C303.105 150.008 304.273 149.469 305.476 148.914C308.015 147.718 310.552 146.519 313.089 145.318C313.752 145.005 314.415 144.691 315.099 144.369C336.484 134.257 357.475 123.516 377.936 111.637C380.497 110.156 383.069 108.696 385.648 107.246C386.759 106.62 386.759 106.62 387.892 105.982C388.577 105.596 389.261 105.211 389.966 104.814C394.583 102.242 394.583 102.242 398.576 98.864z" fill="#876F7B"></path>
  <path class="logo-path" style="--i:2;" d="M363.856 78.704C364.725 79.028 365.594 79.353 366.49 79.687C392.188 89.324 392.188 89.324 397.456 94.384C397.884 96.239 398.263 98.106 398.576 99.984C390.636 105.834 382.444 110.719 373.726 115.314C371.813 116.332 371.813 116.332 369.862 117.371C365.997 119.423 362.127 121.465 358.256 123.504C357.161 124.084 356.067 124.663 354.939 125.261C341.572 132.338 328.098 139.197 314.576 145.974C313.849 146.339 313.122 146.704 312.373 147.08C310.285 148.127 308.196 149.171 306.106 150.213C304.903 150.814 303.701 151.415 302.462 152.034C299.85 153.286 297.273 154.416 294.595 155.505C290.965 156.697 290.965 156.697 289.936 159.344C289.656 161.838 289.405 164.336 289.166 166.834C287.278 183.743 282.061 200.267 276.802 216.398C275.557 220.262 274.466 224.162 273.372 228.071C270.667 237.591 267.591 246.977 264.456 256.364C264.162 257.248 263.868 258.132 263.565 259.042C259.518 271.181 255.207 283.137 250.281 294.952C248.727 298.694 247.446 302.468 246.256 306.344C244.038 313.28 240.761 319.564 237.436 326.018C235.493 329.8 233.682 333.626 231.914 337.492C228.122 345.775 223.969 353.799 219.586 361.784C218.736 363.362 218.736 363.362 217.868 364.971C215.129 370.026 212.326 374.957 209.174 379.765C198.791 396.309 197.989 413.222 197.301 432.297C197.172 435.664 196.93 438.363 195.856 441.584C190.305 440.805 185.486 438.618 180.386 436.404C179.372 435.967 178.358 435.529 177.314 435.079C166.476 430.353 155.789 425.305 145.102 420.251C137.022 416.434 128.923 412.669 120.772 409.003C119.524 408.441 119.524 408.441 118.251 407.868C114.252 406.068 110.25 404.276 106.242 402.495C91.346 395.833 78.979 390.165 72.389 374.511C62.402 346.804 79.24 311.988 88.336 285.904C89.048 283.838 89.76 281.771 90.471 279.705C99.65 253.197 110.788 227.037 122.763 201.681C124.86 197.027 126.62 192.257 128.415 187.48C130.101 183.148 132.018 178.952 133.98 174.74C135.447 171.507 136.78 168.237 138.106 164.944C139.052 162.699 140.008 160.459 140.976 158.224C141.455 157.105 141.935 155.986 142.429 154.833C146.407 146.507 150.365 143.48 158.896 140.304C160.12 139.807 161.345 139.311 162.606 138.799C165.397 137.668 168.19 136.552 170.993 135.452C182.084 131.076 193.12 126.488 203.906 121.404C213.989 116.686 224.314 112.528 234.602 108.282C238.523 106.66 242.438 105.025 246.352 103.388C259.704 97.813 273.084 92.329 286.576 87.104C288.288 86.437 288.288 86.437 290.034 85.757C314.058 76.546 338.85 69.14 363.856 78.704z" fill="#EBD1BF"></path>
  <path class="logo-path" style="--i:3;" d="M398.576 98.864C400.816 101.104 400.816 101.104 400.816 105.584C401.555 105.584 402.294 105.584 403.056 105.584C404.171 109.429 405.26 113.281 406.346 117.134C406.657 118.206 406.968 119.278 407.289 120.382C409.143 127.017 410.254 133.319 410.662 140.2C410.645 142.529 410.645 142.529 412.016 143.664C412.337 145.79 412.593 147.926 412.821 150.065C412.964 151.365 413.107 152.665 413.254 154.004C413.4 155.374 413.546 156.743 413.696 158.154C413.984 160.848 414.275 163.542 414.571 166.235C414.699 167.436 414.827 168.637 414.958 169.874C415.216 172.759 415.216 172.759 416.496 175.024C416.716 176.96 416.924 178.897 417.126 180.834C418.37 189.382 421.263 197.122 424.212 205.213C427.661 214.839 430.087 224.538 432.277 234.515C432.83 238.595 432.83 238.595 434.416 239.984C434.722 241.677 434.966 243.382 435.182 245.09C435.388 246.676 435.388 246.676 435.599 248.294C435.74 249.41 435.881 250.525 436.026 251.674C436.94 258.888 437.987 266.005 439.469 273.125C440.361 277.528 441.069 281.957 441.766 286.394C441.912 287.319 442.059 288.243 442.21 289.196C443.117 295.053 443.772 300.879 444.22 306.79C444.592 310.345 445.38 313.747 446.202 317.22C449.57 331.63 447.498 344.744 443.376 358.704C442.637 359.813 441.898 360.922 441.136 362.064C440.397 362.064 439.658 362.064 438.896 362.064C438.896 363.173 438.896 364.282 438.896 365.424C438.157 365.424 437.418 365.424 436.656 365.424C436.656 366.533 436.656 367.642 436.656 368.784C434.858 370.814 433.057 372.566 431.056 374.384C430.362 375.057 429.667 375.73 428.952 376.423C412.742 391.647 392.895 398.115 372.217 404.839C369.685 405.669 367.162 406.523 364.639 407.38C356.592 410.069 348.421 412.365 340.279 414.748C333.888 416.627 327.533 418.557 321.224 420.698C312.242 423.705 303.024 426.053 293.856 428.424C293.119 428.62 292.382 428.817 291.622 429.019C287.231 430.132 283.26 430.579 278.736 430.384C279.414 429.695 279.414 429.695 280.105 428.991C284.691 424.044 286.802 419.893 288.326 413.374C288.549 412.503 288.772 411.632 289.002 410.735C289.709 407.956 290.384 405.171 291.056 402.384C291.507 400.561 291.959 398.738 292.412 396.915C292.751 395.555 292.751 395.555 293.096 394.166C293.324 393.251 293.551 392.337 293.786 391.394C294.132 390.001 294.132 390.001 294.485 388.58C301.451 360.681 311.413 335.443 324.079 309.69C330.356 296.926 336.291 284.086 341.526 270.854C342.011 269.634 342.495 268.415 342.994 267.158C347.286 256.303 351.39 245.449 354.704 234.248C356.207 229.326 357.862 224.54 359.787 219.767C366.086 204.13 370.225 189.138 372.94 172.56C374.592 162.495 376.757 153.517 381.146 144.294C387.955 129.621 393.627 114.261 398.576 98.864z" fill="#47464C"></path>
  <path class="logo-path" style="--i:4;" d="M363.856 78.704C364.725 79.028 365.594 79.353 366.49 79.687C392.188 89.324 392.188 89.324 397.456 94.384C397.884 96.239 398.263 98.106 398.576 99.984C390.636 105.834 382.444 110.719 373.726 115.314C372.451 115.993 371.176 116.671 369.862 117.371C365.997 119.423 362.127 121.465 358.256 123.504C357.161 124.084 356.067 124.663 354.939 125.261C328.976 139.007 302.881 152.316 275.825 163.784C271.993 165.437 268.223 167.209 264.456 169.004C222.012 188.994 222.012 188.994 204.694 182.938C194.094 179.046 184.137 173.907 174.086 168.794C172.174 167.831 170.261 166.87 168.348 165.909C166.505 164.98 164.663 164.05 162.82 163.12C161.979 162.695 161.138 162.27 160.271 161.832C155.245 159.274 150.331 156.58 145.456 153.744C146.007 148.788 147.192 146.798 151.056 143.664C154.722 141.844 158.511 140.381 162.326 138.904C164.555 138.017 166.783 137.129 169.011 136.24C170.692 135.575 170.692 135.575 172.406 134.896C177.283 132.951 182.128 130.933 186.966 128.894C187.851 128.522 188.736 128.149 189.647 127.766C194.445 125.734 199.192 123.624 203.906 121.404C213.989 116.686 224.314 112.528 234.602 108.282C238.523 106.66 242.438 105.025 246.352 103.388C259.704 97.813 273.084 92.329 286.576 87.104C288.288 86.437 288.288 86.437 290.034 85.757C314.058 76.546 338.85 69.14 363.856 78.704z" fill="#FAF9E9"></path>
  <path class="logo-path" style="--i:5;" d="M288.816 157.104C295.762 170.997 281.34 202.478 276.802 216.398C275.557 220.262 274.466 224.162 273.372 228.071C270.667 237.591 267.591 246.977 264.456 256.364C264.162 257.248 263.868 258.132 263.565 259.042C259.518 271.181 255.207 283.137 250.281 294.952C248.727 298.694 247.446 302.468 246.256 306.344C244.038 313.28 240.761 319.564 237.436 326.018C235.493 329.8 233.682 333.626 231.914 337.492C227.63 346.85 222.849 355.874 217.875 364.883C211.851 375.797 206.079 386.839 200.336 397.904C199.966 397.904 199.597 397.904 199.216 397.904C196.248 361.974 197.906 324.236 206.207 289.124C208.582 278.925 209.341 269.203 209.257 258.753C209.17 246.119 209.724 233.556 210.416 220.944C210.63 216.978 210.84 213.011 211.046 209.044C211.119 207.649 211.119 207.649 211.194 206.225C211.496 200.223 211.616 194.252 211.466 188.241C211.536 186.224 211.536 186.224 212.656 185.104C214.825 184.88 216.995 184.674 219.166 184.474C230.423 182.931 240.388 178.426 250.736 173.904C251.621 173.519 252.506 173.133 253.418 172.736C258.437 170.542 263.436 168.304 268.43 166.05C272.646 164.159 276.881 162.312 281.116 160.464C281.893 160.125 282.67 159.785 283.471 159.436C285.252 158.658 287.034 157.881 288.816 157.104z" fill="#CDB0A4"></path>
</svg>
