<svg version="1.1"
  xmlns="http://www.w3.org/2000/svg" width="180" height="180" viewBox="0 0 512 512">
  <path class="logo-path" style="--i:0;" d="M0 0L512 0L512 512L0 512z" fill="#8E43B2" />
  <path class="logo-path" style="--i:1;" d="M380 108C382 110 382 110 382 114C382.66 114 383.32 114 384 114C384.99533533 117.43302104 385.96814372 120.87206158000001 386.9375 124.3125C387.21529297 125.26962891 387.49308594 126.22675781 387.77929688 127.21289062C389.43471932 133.1365107 390.42707764 138.76298352999999 390.79125977 144.90698242C390.77550279 146.98665057 390.77550279 146.98665057 392 148C392.28689094 149.89839941 392.51544316 151.80568345 392.71875 153.71484375C392.91017578 155.45604492 392.91017578 155.45604492 393.10546875 157.23242188C393.23566406 158.45509766 393.36585938 159.67777344 393.5 160.9375C393.75694077 163.34282176 394.01718954 165.74779319 394.28125 168.15234375C394.39533203 169.22476318 394.50941406 170.29718262 394.62695312 171.40209961C394.85734932 173.9776497 394.85734932 173.9776497 396 176C396.19672365 177.72814161 396.38196799 179.45759197 396.5625 181.1875C397.67318896 188.81927942 400.25636536 195.72998067 402.88916016 202.9543457C405.96902256 211.54919633999998 408.13464089 220.20889759 410.08984375 229.1171875C410.58379475 232.75948466 410.58379475 232.75948466 412 234C412.27352849 235.51197872 412.49104443 237.03418493 412.68359375 238.55859375C412.86825195 239.97495117 412.86825195 239.97495117 413.05664062 241.41992188C413.18232422 242.41572266 413.30800781 243.41152344 413.4375 244.4375C414.25392112 250.87815551 415.18852271000003 257.23346076999997 416.51147461 263.59057616999996C417.30846686 267.52136902999996 417.94019114 271.47586297 418.5625 275.4375C418.69325928 276.2629834 418.82401855 277.0884668 418.95874023 277.93896484000004C419.76838236 283.16852391 420.35358443 288.37072535 420.75390625 293.6484375C421.0860141 296.82191246 421.78926607 299.85988504 422.5234375 302.9609375C425.53046041 315.82705192000003 423.68023524 327.53555363 420 340C419.34000000000003 340.99 418.68 341.98 418 343C417.34000000000003 343 416.68 343 416 343C416 343.99 416 344.98 416 346C415.34000000000003 346 414.68 346 414 346C414 346.99 414 347.98 414 349C412.39439794 350.81277652 410.78688162 352.37709105 409 354C408.37996094 354.60070312 407.75992188 355.20140625 407.12109375 355.8203125C392.64808594 369.41374525 374.92796286 375.18810514 356.46533203 381.19238281C354.20434653 381.9330582 351.95176996 382.6951011 349.69921875 383.4609375C342.51419204 385.86149224 335.21854807 387.91184402 327.94921875 390.0390625C322.24285021000003 391.71702946 316.56840385 393.4401695 310.93603516 395.35205078C305.68736791000003 397.10866653 300.33606199999997 398.53679849 295 400C294.31856934 400.18771973 293.63713867 400.37543945 292.93505859 400.56884766C290.83480146 401.14164506 288.73084192 401.69812248 286.625 402.25C284.72621094 402.75273438 284.72621094 402.75273438 282.7890625 403.265625C279.46440875999997 403.90999088 276.58152902 404.00626108 273.21630859 403.93164062C268.574366 404.07481577 264.03969703999996 405.20853857 259.5 406.125C247.27224661 408.49197039 235.00286806 410.46079724 222.6875 412.3125C221.36153809 412.51446991 221.36153809 412.51446991 220.00878906 412.72052002C217.46883433 413.10655488 214.92799985 413.48608746 212.38671875 413.86328125C211.24918404 414.03636055 211.24918404 414.03636055 210.08866882 414.2129364C206.02324504 414.80586505 202.10781569 415.11787539 198 415C198.15887695 414.49235107 198.31775391 413.98470215 198.48144531 413.46166992C199.17097394 410.18835675 199.20425931 406.94424996 199.296875 403.61328125C200.08949325 383.95697601 202.627604 369.6558946 213.30419922 352.70654297C215.88854595 348.58185713 218.22314167 344.32932449 220.5625 340.0625C221.00021729 339.27971679999996 221.43793457 338.49693359 221.88891602 337.69042969C227.43046256 327.66123174 232.02897336 317.17503722000004 236.73706055 306.73730469C237.81165068 304.40822977 238.93511546 302.12347925 240.109375 299.84375C242.34453067 295.43832476 244.08199639 290.87263764 245.8125 286.25C246.15869385 285.3324292 246.5048877 284.4148584 246.86157227 283.46948241999996C250.05241908 274.96031446 253.07077384000002 266.39560931 256.02880859 257.80322265999996C257.11777746999996 254.66005004 258.22432733 251.52333625 259.33203125 248.38671875C260.13813239 246.091185 260.94412308 243.79561247 261.75 241.5C262.12697020999997 240.43821533 262.50394043 239.37643066 262.89233398 238.2824707C265.0298095 232.16345127 266.79265929 226.0649109 268.30029297 219.76220703C268.89973914 217.39579600000002 269.59038628999997 215.13680085 270.3984375 212.8359375C272.64655723 206.32606278 274.29549822 199.63572487 276.01660156 192.97167969C276.6223913 190.63506212 277.24071352 188.30198757 277.859375 185.96875C279.76233890000003 178.67195207 281.47987547 171.7755866 281.54443359 164.17724608999998C282.1890496 161.09649284 283.59506374 159.97540947 286 158C288.27294922 156.68237305 288.27294922 156.68237305 290.8046875 155.51171875C291.7652002 155.06062744 292.72571289 154.60953613 293.71533203 154.14477539C294.75802246 153.66387451 295.80071289 153.18297363 296.875 152.6875C299.1415822 151.61921604 301.40716485 150.54880941 303.671875 149.4765625C304.26424957 149.1969014 304.85662415 148.9172403 305.46694946 148.62910461C324.56058777 139.60074717 343.30246782 130.01115902 361.57177734 119.40429688C363.85836449 118.08191106 366.15446394 116.77868982 368.45703125 115.484375C369.44896484 114.92544556 369.44896484 114.92544556 370.4609375 114.35522461C371.07195312 114.01112549 371.68296875 113.66702637 372.3125 113.3125C376.43510905 111.01647252 376.43510905 111.01647252 380 108z" fill="#876F7B" />
  <path class="logo-path" style="--i:2;" d="M349 90C349.77601563 90.2897168 350.55203125 90.57943359 351.3515625 90.87792969C374.29643846 99.48225817 374.29643846 99.48225817 379 104C379.38221043 105.65614132 379.72038227 107.32348492 380 109C372.91106871 114.22347484 365.59615996 118.58480872 357.8125 122.6875C356.10465332 123.59640991 356.10465332 123.59640991 354.36230469 124.52368164C350.91201722 126.35643715 347.45660584 128.17919494 344 130C343.02272949 130.51755859 342.04545898 131.03511719 341.03857422 131.56835938C329.10344266 137.88757224 317.0729599 144.01192895 305 150.0625C304.35075562 150.38846161 303.70151123 150.71442322000001 303.03259277 151.05026245C301.16874612 151.98511822 299.30340667 152.91692008 297.4375 153.84765625C296.36371094 154.38398682000002 295.28992188 154.92031738 294.18359375 155.47290039C291.8520311 156.5912995 289.55044693 157.60041456 287.16015625 158.57202148C283.91886028 159.63651104000002 283.91886028 159.63651104000002 283 162C282.74988655 164.22691371000002 282.52571648 166.45675122 282.3125 168.6875C280.62665622 183.78481752 275.96904984 198.53819818 271.2734375 212.94140625C270.1619131 216.39115385 269.18780674 219.87317569 268.2109375 223.36328125C265.79542193 231.86379954 263.04892477 240.24407364 260.25 248.625C259.98743408 249.41414795 259.72486816 250.2032959 259.4543457 251.01635742C255.8408778 261.85456649 251.99179804 272.52979072 247.59375 283.078125C246.20600335 286.41958870999997 245.06206530999998 289.789132 244 293.25C242.01964471 299.44295315 239.09371636999998 305.05384311 236.125 310.81640625C234.39004146000002 314.19281786 232.77362748000002 317.60901394 231.19506836 321.06079102C227.80920972 328.45615005 224.10103315 335.62019745 220.1875 342.75C219.4282019 344.15862304999996 219.4282019 344.15862304999996 218.65356445 345.59570312C216.2079913 350.10870389 213.70552083 354.51117066 210.890625 358.8046875C201.62045691 373.57604983 200.90489561 388.67653148 200.2900238 405.7076416C200.17512761 408.71463636 199.95871101 411.12386698 199 414C194.04367932 413.30472455 189.74078368 411.35182994 185.1875 409.375C184.28225586 408.9845752 183.37701172 408.59415039 182.44433594 408.19189453C172.76782876 403.97224508 163.22630564 399.46485893 153.68383789 394.95288086C146.4692584 391.5448799 139.23797072 388.18299969 131.9609375 384.91015625C130.84664368 384.4082074 130.84664368 384.4082074 129.70983887 383.89611816C126.13925133999999 382.28891369 122.56569013999999 380.68888457 118.98730469 379.09912109C105.68778954999999 373.15097203 94.64556356 368.09051598 88.76171875 354.11328125C79.84496274999998 329.37499922999996 94.87871824999999 298.28915402999996 103 275C103.63589592 273.15511304 104.27138808000001 271.31008679 104.90625 269.46484375C113.10171338 245.79712651 123.04641526 222.44057772 133.73828125 199.80078125C135.61029785 195.64525214 137.18254165 191.38619907 138.78515625 187.12109375C140.29054435 183.25355326 142.00180199 179.5068409 143.75390625 175.74609375C145.0636513 172.8597277 146.25322298 169.93988257 147.4375 167C148.28189861 164.99585637 149.13610079 162.99581533999998 150 161C150.42796875 160.00097656 150.8559375 159.00195312 151.296875 157.97265625C154.84948631 150.53811855 158.38289877 147.83615471000002 166 145C167.093125 144.55656249999998 168.18625 144.113125 169.3125 143.65625C171.80429817 142.64664212 174.29832557 141.6501337 176.80078125 140.66796875C186.70359536 136.76026960000002 196.55704744 132.66452091 206.1875 128.125C215.19039086 123.91232654000001 224.40859448999998 120.20032489 233.59472656 116.40917969C237.09523208000002 114.96059079 240.59096395 113.50094366 244.0859375 112.0390625C256.00672066 107.06191097 267.95313068 102.16489064 280 97.5C281.52826416 96.90445313000001 281.52826416 96.90445313000001 283.08740234 96.296875C304.53761389 88.07306175 326.67356421 81.46061537 349 90z" fill="#EBD1BF" />
  <path class="logo-path" style="--i:3;" d="M380 108C382 110 382 110 382 114C382.66 114 383.32 114 384 114C384.99533533 117.43302104 385.96814372 120.87206158000001 386.9375 124.3125C387.21529297 125.26962891 387.49308594 126.22675781 387.77929688 127.21289062C389.43471932 133.1365107 390.42707764 138.76298352999999 390.79125977 144.90698242C390.77550279 146.98665057 390.77550279 146.98665057 392 148C392.28689094 149.89839941 392.51544316 151.80568345 392.71875 153.71484375C392.84636719 154.87564453 392.97398437 156.03644531 393.10546875 157.23242188C393.23566406 158.45509766 393.36585938 159.67777344 393.5 160.9375C393.75694077 163.34282176 394.01718954 165.74779319 394.28125 168.15234375C394.39533203 169.22476318 394.50941406 170.29718262 394.62695312 171.40209961C394.85734932 173.9776497 394.85734932 173.9776497 396 176C396.19672365 177.72814161 396.38196799 179.45759197 396.5625 181.1875C397.67318896 188.81927942 400.25636536 195.72998067 402.88916016 202.9543457C405.96902256 211.54919633999998 408.13464089 220.20889759 410.08984375 229.1171875C410.58379475 232.75948466 410.58379475 232.75948466 412 234C412.27352849 235.51197872 412.49104443 237.03418493 412.68359375 238.55859375C412.86825195 239.97495117 412.86825195 239.97495117 413.05664062 241.41992188C413.18232422 242.41572266 413.30800781 243.41152344 413.4375 244.4375C414.25392112 250.87815551 415.18852271000003 257.23346076999997 416.51147461 263.59057616999996C417.30846686 267.52136902999996 417.94019114 271.47586297 418.5625 275.4375C418.69325928 276.2629834 418.82401855 277.0884668 418.95874023 277.93896484000004C419.76838236 283.16852391 420.35358443 288.37072535 420.75390625 293.6484375C421.0860141 296.82191246 421.78926607 299.85988504 422.5234375 302.9609375C425.53046041 315.82705192000003 423.68023524 327.53555363 420 340C419.34000000000003 340.99 418.68 341.98 418 343C417.34000000000003 343 416.68 343 416 343C416 343.99 416 344.98 416 346C415.34000000000003 346 414.68 346 414 346C414 346.99 414 347.98 414 349C412.39439794 350.81277652 410.78688162 352.37709105 409 354C408.37996094 354.60070312 407.75992188 355.20140625 407.12109375 355.8203125C392.64808594 369.41374525 374.92796286 375.18810514 356.46533203 381.19238281C354.20434653 381.9330582 351.95176996 382.6951011 349.69921875 383.4609375C342.51419204 385.86149224 335.21854807 387.91184402 327.94921875 390.0390625C322.24285021000003 391.71702946 316.56840385 393.4401695 310.93603516 395.35205078C302.91603704 398.03617121 294.68553883 400.13267396 286.5 402.25C285.84185303 402.42523193 285.18370605 402.60046387 284.50561523 402.78100586C280.5849676 403.77481068 277.03957338 404.17454947 273 404C273.60509399 403.38451294 273.60509399 403.38451294 274.22241211 402.7565918C278.31714332 398.33922667 280.20184214 394.63341637 281.5625 388.8125C281.76174072000003 388.03495361 281.96098145 387.25740723 282.16625977 386.45629883C282.79732260000003 383.97533875 283.40034356 381.48871955 284 379C284.40227431 377.37205631 284.80591551 375.74444976 285.2109375 374.1171875C285.51306152 372.90228638 285.51306152 372.90228638 285.82128906 371.6628418C286.02463867 370.845979 286.22798828 370.02911621 286.4375 369.1875C286.7463916 367.94383667 286.7463916 367.94383667 287.06152344 366.67504883C293.2812058 341.76517305 302.17622425 319.23133566 313.48477173000003 296.2374115C319.08910916 284.84073523 324.38817852 273.37696324 329.0625 261.5625C329.4951416 260.47356445 329.9277832 259.38462891 330.37353516 258.26269531C334.2051126 248.57029306 337.86990062 238.87905932 340.828125 228.87890625C342.17096616 224.48398343 343.64844929000003 220.21088135 345.3671875 215.94921875C350.99067376 201.98768956 354.68622748 188.60180780000002 357.11083984 173.79956055C358.58589717 164.81372903 360.51918485 156.79738528000001 364.4375 148.5625C370.51727208 135.46203874 375.5811288 121.7475993 380 108z" fill="#47464C" />
  <path class="logo-path" style="--i:4;" d="M349 90C349.77601563 90.2897168 350.55203125 90.57943359 351.3515625 90.87792969C374.29643846 99.48225817 374.29643846 99.48225817 379 104C379.38221043 105.65614132 379.72038227 107.32348492 380 109C372.91106871 114.22347484 365.59615996 118.58480872 357.8125 122.6875C356.67393555 123.29343994 355.53537109 123.89937988 354.36230469 124.52368164C350.91201722 126.35643715 347.45660584 128.17919494 344 130C343.02272949 130.51755859 342.04545898 131.03511719 341.03857422 131.56835938C317.85758162 143.84184173 294.55789016 155.72483203000002 270.40087891 165.96386719C266.97970525 167.44032244 263.61351442 169.02249985 260.25 170.625C222.35388385 188.47339399 222.35388385 188.47339399 206.890625 183.06640625C197.42720312 179.5911069 188.53662534 175.00291851 179.5625 170.4375C177.85517112 169.57807359 176.14749051 168.71934557 174.43945312 167.86132812C172.79395649 167.03187330999998 171.14876306 166.20181665 169.50390625 165.37109375C168.7527504 164.99182236000001 168.00159454 164.61255096 167.22767639 164.2217865C162.74024059 161.93779483 158.35256204 159.53192461 154 157C154.49167621 152.57491407999999 155.54966853 150.79784820999998 159 148C162.27324606 146.37526713 165.65649777 145.06874391 169.0625 143.75C171.0524201 142.95787674000002 173.04199751 142.16489208000002 175.03125 141.37109375C176.53171875 140.77723877 176.53171875 140.77723877 178.0625 140.17138672C182.41697374 138.43495346 186.7426531 136.63310146 191.0625 134.8125C191.85253418 134.48008301 192.64256836 134.14766602 193.45654297 133.80517578C197.74051407 131.99137221 201.97815998 130.10749919 206.1875 128.125C215.19039086 123.91232654000001 224.40859448999998 120.20032489 233.59472656 116.40917969C237.09523208000002 114.96059079 240.59096395 113.50094366 244.0859375 112.0390625C256.00672066 107.06191097 267.95313068 102.16489064 280 97.5C281.52826416 96.90445313000001 281.52826416 96.90445313000001 283.08740234 96.296875C304.53761389 88.07306175 326.67356421 81.46061537 349 90z" fill="#FAF9E9" />
  <path class="logo-path" style="--i:5;" d="M282 160C288.20211708 172.40423417 275.32533938 200.51270014 271.2734375 212.94140625C270.1619131 216.39115385 269.18780674 219.87317568999998 268.2109375 223.36328125C265.79542193 231.86379954 263.04892477 240.24407364 260.25 248.625C259.98743408 249.41414795 259.72486816 250.2032959 259.4543457 251.01635742000002C255.8408778 261.85456649 251.99179804 272.52979072 247.59375 283.078125C246.20600335 286.41958870999997 245.06206531 289.789132 244 293.25C242.01964471 299.44295315 239.09371637 305.05384311 236.125 310.81640625C234.39004146 314.19281786 232.77362748000002 317.60901394 231.19506836 321.06079102C227.36961861 329.4163006 223.1008111 337.47288341 218.66015625 345.51660156C213.28081277 355.26154168 208.12753544999998 365.12078539000004 203 375C202.67000000000002 375 202.34 375 202 375C199.35026220999998 342.9192461 200.83058638 309.22522081 208.2421875 277.875C210.3622416 268.76898451 211.04026094 260.08815246 210.9654541 250.75793457C210.88718613999998 239.47734332 211.38256739000002 228.26089339 212 217C212.19108504000002 213.45851457999999 212.37859801000002 209.91686562 212.5625 206.375C212.62812134 205.12928223 212.62812134 205.12928223 212.69506836 203.85839844C212.96412261 198.49896769 213.07104356000002 193.1675631 212.9375 187.80078125C213 186 213 186 214 185C215.93624046 184.79991156 217.87412868 184.61576698 219.8125 184.4375C229.86350506 183.05995108 238.76028933999999 179.03789681 248 175C248.79019531 174.65598145 249.58039063 174.31196289 250.39453125 173.95751953C254.87626888 171.99817163 259.33954308 169.99976304 263.79785156 167.98779297C267.56219818 166.29926232 271.34356713 164.64982578 275.125 163C275.81883789 162.69698975 276.51267578 162.39397949 277.22753906 162.08178711C278.81814789 161.38737344 280.4090392 160.69360689 282 160z" fill="#CDB0A4" />
</svg>